<?xml version="1.0" encoding="utf-8"?>
<!-- Generator: Adobe Illustrator 21.0.0, SVG Export Plug-In . SVG Version: 6.00 Build 0)  -->
<svg version="1.1" id="Layer_1" xmlns="http://www.w3.org/2000/svg" xmlns:xlink="http://www.w3.org/1999/xlink" x="0px" y="0px"
	 viewBox="0 0 256 256" enable-background="new 0 0 256 256" xml:space="preserve">
<rect y="0" fill="#A05C94" width="256" height="256"/>
<path opacity="0.7" fill="#73467A" enable-background="new    " d="M62.752,159L0.017,222.485L0,256h163.669
	c0,0,20.083-19.125,30.958-28.875C173.96,228.125,66.669,233,63.669,221C58.039,198.479,62.752,159,62.752,159z"/>
<g>
	<path fill="#9B5C8F" d="M126.422,227.714H76.387c-8.428,0-15.285-6.857-15.285-15.286v-40.952
		c-0.033-4.038,1.533-7.873,4.411-10.772c2.887-2.91,6.729-4.513,10.819-4.513h107.285c8.429,0,15.286,6.856,15.286,15.285v40.952
		c0,8.429-6.857,15.286-15.286,15.286H149.61l6.826,16.711L126.422,227.714z"/>
	<path fill="#FFFFFF" d="M183.617,159.19c6.79,0,12.286,5.495,12.286,12.285v40.952c0,6.79-5.496,12.286-12.286,12.286h-38.473
		l5.282,12.932L127.2,224.714H76.387c-6.79,0-12.285-5.496-12.285-12.286v-40.952c-0.055-6.735,5.441-12.285,12.23-12.285h107.285
		 M183.617,153.19H76.332c-4.896,0-9.495,1.918-12.949,5.399c-3.445,3.473-5.32,8.065-5.281,12.934v40.904
		c0,10.083,8.203,18.286,18.285,18.286h49.256l21.865,12.174l14.938,8.317l-6.465-15.828l-1.905-4.663h29.541
		c10.083,0,18.286-8.203,18.286-18.286v-40.952C201.903,161.394,193.7,153.19,183.617,153.19L183.617,153.19z"/>
</g>
<g>
	<path opacity="0.7" fill="#73467A" enable-background="new    " d="M25.391,26.495c0,0-1.625,0.203-3.141,2.047
		C20.531,30.261,0.016,50.776,0.016,50.776v62.333c0,0,21.935-21.956,22.932-22.953c1.745-1.745,4.302-1.489,4.302-1.489
		l29.285,0.035L67.32,77.917c0,0,4.971-4.334,5.305-5.917C69.75,69.625,25.391,26.495,25.391,26.495z"/>
	<path fill="#72007F" d="M71.607,70.802c0,3.354-2.44,6.068-5.45,6.068H24.864c-3.013,0-5.454-2.715-5.454-6.068V33.924
		c0-3.349,2.441-6.066,5.454-6.066h41.293c3.01,0,5.45,2.717,5.45,6.066C71.607,33.924,71.607,70.802,71.607,70.802z"/>
	<path opacity="0.7" fill="#73467A" enable-background="new    " d="M25.391,88.828c0,0-1.625,0.203-3.141,2.047
		c-1.719,1.719-22.234,22.234-22.234,22.234v94.445L67.32,140.25c0,0,4.971-4.334,5.305-5.917
		C69.75,131.958,25.391,88.828,25.391,88.828z"/>
	<path fill="#72007F" d="M71.607,133.135c0,3.354-2.44,6.068-5.45,6.068H24.864c-3.013,0-5.454-2.715-5.454-6.068V96.257
		c0-3.349,2.441-6.066,5.454-6.066h41.293c3.01,0,5.45,2.717,5.45,6.066C71.607,96.257,71.607,133.135,71.607,133.135z"/>
	<path fill="#ACC943" d="M73.233,69.296c0,3.353-2.44,6.068-5.45,6.068H26.49c-3.013,0-5.454-2.715-5.454-6.068V32.418
		c0-3.349,2.441-6.066,5.454-6.066h41.293c3.01,0,5.45,2.717,5.45,6.066C73.233,32.418,73.233,69.296,73.233,69.296z"/>
	<path fill="#FFFFFF" d="M68.771,41.59h-6.125L51.804,57.808c-0.16,0.237-0.361,0.429-0.588,0.571
		c-0.341,0.284-0.779,0.456-1.258,0.456H31.91c-1.083,0-1.961-0.878-1.961-1.962c0-1.084,0.878-1.962,1.961-1.962h17.111
		l1.568-2.345H28.605c-1.084,0-1.962-0.878-1.962-1.961s0.878-1.963,1.962-1.963h24.326c0.091,0,0.18,0.007,0.268,0.02l1.662-2.484
		H26.775c-1.084,0-1.962-0.878-1.962-1.962c0-1.083,0.877-1.961,1.962-1.961h30.603c0.034,0,0.068,0,0.104,0.002l2.401-3.591
		c0.176-0.262,0.403-0.467,0.66-0.614c0.326-0.242,0.73-0.385,1.167-0.385h7.062c1.083,0,1.961,0.878,1.961,1.962
		S69.855,41.59,68.771,41.59z M36.624,60.41c1.88,0,3.405,1.525,3.405,3.406c0,1.88-1.524,3.405-3.405,3.405
		s-3.405-1.524-3.405-3.405C33.219,61.935,34.744,60.41,36.624,60.41z M45.815,60.41c1.88,0,3.405,1.525,3.405,3.406
		c0,1.88-1.524,3.405-3.405,3.405s-3.406-1.524-3.406-3.405C42.409,61.935,43.934,60.41,45.815,60.41z"/>
	<path fill="#D20024" d="M73.233,131.634c0,3.354-2.44,6.068-5.45,6.068H26.49c-3.013,0-5.454-2.715-5.454-6.068V94.756
		c0-3.349,2.441-6.066,5.454-6.066h41.293c3.01,0,5.45,2.717,5.45,6.066C73.233,94.756,73.233,131.634,73.233,131.634z"/>
	<path fill="#FFFFFF" d="M63.999,111.181c0-0.963-0.399-1.836-1.038-2.462L49.94,97.759c-1.348-1.348-3.534-1.348-4.881,0
		l-13.021,10.96c-0.639,0.625-1.038,1.499-1.038,2.462v15.82c0,1.52,1.23,2.75,2.75,2.75h27.5c1.52,0,2.75-1.23,2.75-2.75
		L63.999,111.181L63.999,111.181z M38.011,108.437h18.976c0.838,0,1.512,0.674,1.512,1.513v2.613
		c-0.006,0.33-0.138,0.653-0.392,0.908l-4.235,4.27l6.298,6.291c0.522,0.522,0.522,1.368,0,1.891c-0.523,0.522-1.369,0.522-1.891,0
		l-6.483-6.483h-8.608l-6.469,6.483c-0.522,0.522-1.368,0.522-1.891,0c-0.522-0.523-0.522-1.368,0-1.891l6.291-6.291l-4.229-4.27
		c-0.275-0.275-0.406-0.632-0.392-0.997v-2.523C36.499,109.111,37.172,108.437,38.011,108.437z"/>
	<path opacity="0.3" enable-background="new    " d="M56.105,145.901c0.191-1.883,0.351-3.597,0.542-5.309
		c0.528-4.739,1.047-9.484,1.613-14.22c0.281-2.337,1.159-4.447,2.909-6.066c2.405-2.228,5.24-2.366,8.131-1.265
		c2.758,1.05,4.169,3.3,4.359,6.166c0.131,1.948-0.099,3.925-0.241,5.882c-0.14,1.904-0.375,3.803-0.581,5.811
		c0.461-0.002,0.714,0,0.969,0c3.409,0,6.458,0.738,8.363,3.96c0.117,0.194,0.576,0.29,0.859,0.264
		c2.09-0.189,4.077,0.106,5.894,1.197c1.337,0.803,2.253,1.966,2.869,3.396c0.094,0.216,0.445,0.468,0.661,0.454
		c5.242-0.324,8.483,3.59,8.588,8.13c0.054,2.328-0.296,4.669-0.499,7.002c-0.35,3.972-0.762,7.924-2.008,11.756
		c-2.26,6.928-6.068,12.859-11.192,17.981c-0.171,0.171-0.318,0.363-0.472,0.55c-0.647,0.784-1.467,1.045-2.488,1.049
		c-8.328,0.032-16.38,0.308-24.752-0.549c-1.029-0.104-1.709-0.684-2.193-1.566c-4.489-8.199-8.231-18.866-10.859-27.834
		c-0.757-2.575-1.651-5.133-2.747-7.58c-2.446-5.463,1.187-9.869,6.123-10.477C52.061,144.371,54.06,144.802,56.105,145.901z"/>
	<g>
		<path fill="#FFFFFF" d="M61.226,150.479c0,0,0.193-25.894,2.028-27.922c1.836-2.029,7.633-3.672,8.504,0.868
			c0.869,4.543,0.772,23.094,0.772,23.094s-0.677-10.145,5.217-9.372c5.895,0.772,5.413,8.211,5.413,8.211s2.801-7.05,6.568-4.539
			c3.77,2.513,3.77,8.502,3.77,8.502s0.675-7.44,5.12-4.541c4.444,2.898,3.961,10.145,2.416,22.415
			c-1.545,12.271-7.344,20.098-13.817,19.906c-6.473-0.196-17.778-0.678-19.807-0.678c-2.028,0-5.99-5.508-9.274-13.045
			c-3.286-7.534-6.185-16.522-7.538-18.936c-1.352-2.417,0.774-6.476,3.479-6.861C56.781,147.194,61.226,150.479,61.226,150.479z"/>
		<path d="M59.339,145.55c0-1.893-0.015-3.612,0.002-5.334c0.046-4.771,0.082-9.542,0.166-14.312c0.041-2.354,0.703-4.54,2.278-6.33
			c2.167-2.458,4.974-2.884,7.962-2.08c2.849,0.764,4.481,2.86,4.961,5.692c0.325,1.923,0.3,3.914,0.354,5.876
			c0.055,1.908,0.013,3.82,0.013,5.836c0.456-0.046,0.709-0.069,0.961-0.097c3.391-0.343,6.502,0.086,8.722,3.094
			c0.134,0.183,0.603,0.23,0.884,0.178c2.059-0.4,4.065-0.308,5.984,0.595c1.41,0.658,2.44,1.728,3.199,3.087
			c0.113,0.204,0.487,0.422,0.701,0.387c5.181-0.854,8.804,2.711,9.367,7.216c0.289,2.313,0.179,4.676,0.212,7.017
			c0.056,3.988,0.044,7.964-0.807,11.899c-1.548,7.121-4.735,13.41-9.315,19.022c-0.151,0.188-0.277,0.394-0.413,0.597
			c-0.565,0.845-1.351,1.292-2.372,1.292c-8.413,0-16.827-0.006-25.241-0.007c-1.036,0-1.771-0.508-2.34-1.338
			c-5.296-7.703-9.535-15.968-13.059-24.623c-1.012-2.485-2.162-4.939-3.498-7.262c-2.987-5.188,0.18-9.939,5.03-11.044
			C55.16,144.439,57.193,144.664,59.339,145.55z M64.745,149.435c-0.001,1.184,0.028,2.379-0.11,3.548
			c-0.146,1.233-1.095,2.087-2.222,2.234c-1.33,0.175-2.367-0.406-2.971-1.585c-0.366-0.714-0.734-1.452-1.244-2.061
			c-1.225-1.46-3.252-1.803-4.819-0.912c-1.024,0.584-1.21,1.226-0.66,2.269c0.628,1.188,1.318,2.351,1.87,3.575
			c1.932,4.291,3.794,8.613,5.724,12.906c2.105,4.683,4.796,9.022,7.708,13.237c0.543,0.785,1.073,1.076,2.012,1.067
			c6.076-0.047,12.152-0.099,18.225,0.011c1.667,0.03,2.727-0.413,3.755-1.759c4.003-5.231,6.638-11.055,7.261-17.603
			c0.423-4.438,0.304-8.933,0.311-13.4c0.001-0.854-0.42-1.771-0.843-2.552c-0.377-0.695-1.167-1.005-1.961-0.813
			c-0.808,0.194-0.923,0.989-1.045,1.668c-0.115,0.659-0.125,1.339-0.177,2.012c-0.111,1.46-1.321,2.519-2.845,2.487
			c-1.404-0.031-2.566-1.161-2.583-2.574c-0.009-0.858,0.035-1.726,0.136-2.576c0.156-1.322,0.27-2.637-0.175-3.918
			c-0.378-1.087-1.58-1.578-3.053-1.295c-0.78,0.149-1.172,0.794-1.168,1.951c0.004,1.107,0.048,2.212,0.024,3.316
			c-0.028,1.389-1.164,2.52-2.579,2.624c-1.298,0.097-2.739-0.943-2.818-2.264c-0.126-2.145-0.041-4.3-0.111-6.448
			c-0.021-0.611-0.085-1.451-0.471-1.771c-0.957-0.786-2.206-0.884-3.356-0.425c-0.971,0.39-1.168,1.353-1.157,2.306
			c0.02,1.617,0.107,3.231,0.126,4.85c0.026,1.816-1.351,3.135-3.059,2.969c-1.406-0.136-2.409-1.235-2.479-2.912
			c-0.087-2.067-0.053-4.141-0.098-6.211c-0.081-3.718-0.171-7.438-0.279-11.156c-0.059-1.937-0.104-3.876-0.274-5.807
			c-0.102-1.156-0.611-1.607-1.495-1.727c-1.038-0.14-1.926,0.247-2.33,1.189c-0.268,0.628-0.449,1.342-0.455,2.02
			C65.021,130.244,64.756,145.931,64.745,149.435z"/>
	</g>
</g>
<g>
	<path opacity="0.2" enable-background="new    " d="M241.387,34.414c-2.44,0-4.417,1.916-4.551,4.324H122.199v127.203h119.046
		V43.557c0.048,0.002,0.093,0.014,0.142,0.014c2.531,0,4.58-2.049,4.58-4.578S243.918,34.414,241.387,34.414z"/>
	<rect x="114.699" y="24.738" fill="#FFFFFF" width="119.046" height="133.209"/>
	<rect x="129.15" y="39.805" fill="#CCCCCC" width="90.143" height="3.721"/>
	<rect x="190.65" y="133.967" fill="#CCCCCC" width="28.643" height="10.232"/>
	<g>
		<path fill="#4D4D4D" d="M238.133,25.075c0,2.529-2.049,4.579-4.58,4.579c-2.527,0-4.576-2.05-4.576-4.579
			c0-2.528,2.049-4.578,4.576-4.578C236.084,20.497,238.133,22.547,238.133,25.075z"/>
		<path fill="#FFFFFF" d="M234.244,25.075l1.416-1.416c0.19-0.191,0.19-0.5,0-0.69c-0.191-0.19-0.499-0.19-0.689,0l-1.418,1.416
			l-1.416-1.416c-0.189-0.19-0.498-0.19-0.689,0c-0.189,0.19-0.189,0.499,0,0.69l1.416,1.416l-1.416,1.416
			c-0.189,0.19-0.189,0.499,0,0.69c0.096,0.096,0.222,0.143,0.345,0.143c0.127,0,0.251-0.047,0.345-0.143l1.416-1.417l1.418,1.417
			c0.096,0.096,0.219,0.143,0.344,0.143c0.126,0,0.251-0.047,0.346-0.143c0.19-0.191,0.19-0.5,0-0.69L234.244,25.075z"/>
	</g>
	<path fill="#CCCCCC" d="M129.287,51.952v13.702h90.143V51.952H129.287z M217.858,64.344h-87V53.341h87V64.344z"/>
	<path fill="#CCCCCC" d="M129.287,69.621v13.702h90.143V69.621H129.287z M217.858,82.013h-87V71.01h87V82.013z"/>
	<path fill="#CCCCCC" d="M129.287,87.289v40.722h90.143V87.289H129.287z M217.858,126.702h-87V88.678h87V126.702z"/>
</g>
<polygon opacity="0.3" enable-background="new    " points="64.436,120.563 114.699,24.738 114.699,157.947 "/>
<g>
	<g>
		<path fill="#5D88B3" stroke="#FFFFFF" stroke-width="9" stroke-miterlimit="10" d="M101.476,205.091
			c0-3.061,1.161-5.524,3.485-7.388c2.323-1.863,5.153-2.795,8.487-2.795c0.948,0,1.836,0.153,2.665,0.46
			c0.828,0.307,1.427,0.594,1.798,0.864c0.37,0.269,0.625,0.496,0.763,0.682v-1.742c0-1.856-1.673-2.784-5.019-2.784
			c-2.516,0-5.358,0.695-8.527,2.082l-2.435-5.513c4.48-2.32,8.607-3.479,12.384-3.479c1.755,0,3.436,0.172,5.042,0.516
			c1.606,0.344,3.154,0.893,4.647,1.647c1.492,0.755,2.685,1.862,3.58,3.321c0.895,1.459,1.343,3.162,1.343,5.107v10.063h3.196v6.91
			h-11.537l-1.297-2.432c-0.884,1.191-2.001,2.045-3.352,2.564c-1.351,0.518-2.633,0.778-3.846,0.778
			c-3.049,0-5.708-0.76-7.976-2.28C102.609,210.151,101.476,207.958,101.476,205.091z M112.491,204.558
			c0,0.734,0.263,1.331,0.789,1.791c0.526,0.461,1.194,0.691,2.005,0.691c0.742,0,1.423-0.175,2.044-0.526
			c0.621-0.351,1.069-0.758,1.345-1.22v-1.979c-0.604-0.997-1.639-1.497-3.104-1.497
			C113.517,201.801,112.491,202.715,112.491,204.558z"/>
		<path fill="#5D88B3" stroke="#FFFFFF" stroke-width="9" stroke-miterlimit="10" d="M133.378,207.716l5.43-5.638
			c2.303,2.303,4.641,3.456,7.014,3.456c1.489,0,2.658-0.355,3.507-1.065c0.849-0.71,1.273-1.715,1.273-3.014
			c0-2.598-1.472-3.897-4.416-3.897h-3.975v-6.91h3.871c1.316,0,2.398-0.293,3.247-0.879c0.849-0.586,1.273-1.425,1.273-2.518
			c0-1.253-0.468-2.216-1.403-2.891c-0.935-0.675-2.026-1.012-3.273-1.012c-2.13,0-4.209,0.988-6.235,2.964l-5.144-6.003
			c1.143-1.247,2.775-2.398,4.897-3.455c2.121-1.056,4.282-1.585,6.482-1.585c4.295,0,7.629,0.997,10.002,2.99
			s3.559,4.678,3.559,8.053c0,2.421-1.308,4.622-3.923,6.603c3.291,2.477,4.936,5.515,4.936,9.113c0,3.689-1.472,6.564-4.416,8.625
			s-6.382,3.092-10.313,3.092c-2.442,0-4.854-0.607-7.235-1.819C136.153,210.712,134.434,209.31,133.378,207.716z"/>
	</g>
	<g>
		<path fill="#5D88B3" d="M101.477,205.495c0-3.061,1.161-5.523,3.485-7.388c2.323-1.863,5.152-2.795,8.487-2.795
			c0.948,0,1.836,0.153,2.664,0.46c0.828,0.307,1.427,0.595,1.798,0.864c0.371,0.269,0.625,0.496,0.763,0.682v-1.743
			c0-1.855-1.673-2.784-5.019-2.784c-2.516,0-5.358,0.694-8.526,2.082l-2.435-5.513c4.48-2.319,8.607-3.479,12.384-3.479
			c1.755,0,3.436,0.172,5.041,0.516c1.606,0.344,3.154,0.892,4.647,1.647c1.491,0.754,2.685,1.861,3.58,3.32
			c0.895,1.459,1.342,3.161,1.342,5.107v10.062h3.196v6.91h-11.536l-1.297-2.432c-0.884,1.191-2.001,2.045-3.352,2.564
			c-1.351,0.518-2.633,0.778-3.845,0.778c-3.049,0-5.708-0.76-7.975-2.28C102.61,210.555,101.477,208.361,101.477,205.495z
			 M112.492,204.962c0,0.734,0.263,1.331,0.789,1.791c0.526,0.461,1.194,0.691,2.005,0.691c0.742,0,1.423-0.175,2.044-0.526
			c0.62-0.351,1.069-0.757,1.345-1.219v-1.979c-0.604-0.998-1.639-1.496-3.104-1.496
			C113.518,202.205,112.492,203.118,112.492,204.962z"/>
		<path fill="#5D88B3" d="M133.378,208.119l5.43-5.638c2.303,2.304,4.641,3.455,7.014,3.455c1.489,0,2.658-0.355,3.507-1.065
			c0.848-0.71,1.273-1.715,1.273-3.014c0-2.598-1.473-3.897-4.416-3.897h-3.975v-6.91h3.871c1.316,0,2.399-0.293,3.247-0.879
			c0.848-0.586,1.273-1.426,1.273-2.518c0-1.252-0.468-2.216-1.403-2.891c-0.935-0.675-2.026-1.012-3.273-1.012
			c-2.13,0-4.209,0.988-6.235,2.963l-5.144-6.003c1.143-1.247,2.775-2.399,4.897-3.455c2.121-1.056,4.282-1.585,6.482-1.585
			c4.295,0,7.628,0.996,10.001,2.99c2.373,1.993,3.559,4.677,3.559,8.053c0,2.421-1.308,4.622-3.923,6.603
			c3.29,2.477,4.936,5.515,4.936,9.113c0,3.689-1.472,6.564-4.416,8.625c-2.944,2.061-6.382,3.092-10.313,3.092
			c-2.442,0-4.854-0.607-7.235-1.819C136.154,211.116,134.435,209.713,133.378,208.119z"/>
	</g>
</g>
</svg>
